<svg width="50" height="50" viewBox="0 0 50 50" fill="none" xmlns="http://www.w3.org/2000/svg">
<g clip-path="url(#clip0_21_60)">
<path d="M8.85417 -1.12287e-05H41.1458C42.3089 -0.00113552 43.4607 0.232989 44.5355 0.688964C45.6102 1.14494 46.5867 1.81381 47.4091 2.6573C48.2315 3.50079 48.8837 4.50234 49.3283 5.60463C49.7728 6.70692 50.0011 7.88831 50 9.08118V40.9188C50.0011 42.1117 49.7728 43.293 49.3283 44.3953C48.8837 45.4976 48.2315 46.4992 47.4091 47.3427C46.5867 48.1862 45.6102 48.855 44.5355 49.311C43.4607 49.767 42.3089 50.0011 41.1458 50H8.85417C7.69112 50.0011 6.53926 49.767 5.46453 49.311C4.3898 48.855 3.41329 48.1862 2.59088 47.3427C1.76848 46.4992 1.11633 45.4976 0.671755 44.3953C0.227179 43.293 -0.00109226 42.1117 3.92932e-06 40.9188V9.08118C-0.00109226 7.88831 0.227179 6.70692 0.671755 5.60463C1.11633 4.50234 1.76848 3.50079 2.59088 2.6573C3.41329 1.81381 4.3898 1.14494 5.46453 0.688964C6.53926 0.232989 7.69112 -0.00113552 8.85417 -1.12287e-05Z" fill="#000B1D"/>
<path d="M20.2084 40.25C23.0849 40.25 25.4167 37.9182 25.4167 35.0417V29.8333H20.2084C17.3319 29.8333 15.0001 32.1652 15.0001 35.0417C15.0001 37.9182 17.3319 40.25 20.2084 40.25Z" fill="#0ACF83"/>
<path d="M15.0001 24.625C15.0001 21.7485 17.3319 19.4167 20.2084 19.4167H25.4167V29.8333H20.2084C17.3319 29.8333 15.0001 27.5015 15.0001 24.625Z" fill="#A259FF"/>
<path d="M15.0001 14.2083C15.0001 11.3318 17.3319 9 20.2084 9H25.4167V19.4167H20.2084C17.3319 19.4167 15.0001 17.0848 15.0001 14.2083Z" fill="#F24E1E"/>
<path d="M25.4168 9H30.6251C33.5016 9 35.8334 11.3318 35.8334 14.2083C35.8334 17.0848 33.5016 19.4167 30.6251 19.4167H25.4168V9Z" fill="#FF7262"/>
<path d="M35.8334 24.625C35.8334 27.5015 33.5016 29.8333 30.6251 29.8333C27.7486 29.8333 25.4168 27.5015 25.4168 24.625C25.4168 21.7485 27.7486 19.4167 30.6251 19.4167C33.5016 19.4167 35.8334 21.7485 35.8334 24.625Z" fill="#1ABCFE"/>
</g>
<defs>
<clipPath id="clip0_21_60">
<rect width="50" height="50" fill="white"/>
</clipPath>
</defs>
</svg>
