<svg width="35" height="35" viewBox="0 0 35 35" fill="none" xmlns="http://www.w3.org/2000/svg">
<path d="M27.7083 2.91667H7.29166C6.13133 2.91667 5.01854 3.37761 4.19806 4.19808C3.37759 5.01855 2.91666 6.13135 2.91666 7.29167V21.875C2.91666 23.0353 3.37759 24.1481 4.19806 24.9686C5.01854 25.7891 6.13133 26.25 7.29166 26.25H11.6667V29.1667H7.29166C6.90488 29.1667 6.53395 29.3203 6.26046 29.5938C5.98697 29.8673 5.83332 30.2382 5.83332 30.625C5.83332 31.0118 5.98697 31.3827 6.26046 31.6562C6.53395 31.9297 6.90488 32.0833 7.29166 32.0833H27.7083C28.0951 32.0833 28.466 31.9297 28.7395 31.6562C29.013 31.3827 29.1667 31.0118 29.1667 30.625C29.1667 30.2382 29.013 29.8673 28.7395 29.5938C28.466 29.3203 28.0951 29.1667 27.7083 29.1667H23.3333V26.25H27.7083C28.8686 26.25 29.9814 25.7891 30.8019 24.9686C31.6224 24.1481 32.0833 23.0353 32.0833 21.875V7.29167C32.0833 6.13135 31.6224 5.01855 30.8019 4.19808C29.9814 3.37761 28.8686 2.91667 27.7083 2.91667ZM20.4167 29.1667H14.5833V26.25H20.4167V29.1667ZM29.1667 21.875C29.1667 22.2618 29.013 22.6327 28.7395 22.9062C28.466 23.1797 28.0951 23.3333 27.7083 23.3333H7.29166C6.90488 23.3333 6.53395 23.1797 6.26046 22.9062C5.98697 22.6327 5.83332 22.2618 5.83332 21.875V20.4167H29.1667V21.875ZM29.1667 17.5H5.83332V7.29167C5.83332 6.9049 5.98697 6.53396 6.26046 6.26047C6.53395 5.98698 6.90488 5.83334 7.29166 5.83334H27.7083C28.0951 5.83334 28.466 5.98698 28.7395 6.26047C29.013 6.53396 29.1667 6.9049 29.1667 7.29167V17.5Z" fill="#E9E9E9"/>
</svg>
