<svg width="57" height="57" viewBox="0 0 57 57" fill="none" xmlns="http://www.w3.org/2000/svg">
<path d="M10.0938 4.59429e-06H46.9062C48.2321 -0.0012771 49.5452 0.265625 50.7704 0.785436C51.9956 1.30525 53.1089 2.06776 54.0464 3.02934C54.9839 3.99092 55.7274 5.13269 56.2342 6.3893C56.741 7.64591 57.0012 8.99269 57 10.3526V46.6474C57.0012 48.0073 56.741 49.3541 56.2342 50.6107C55.7274 51.8673 54.9839 53.0091 54.0464 53.9707C53.1089 54.9322 51.9956 55.6948 50.7704 56.2146C49.5452 56.7344 48.2321 57.0013 46.9062 57H10.0938C8.76787 57.0013 7.45476 56.7344 6.22956 56.2146C5.00437 55.6948 3.89115 54.9322 2.95361 53.9707C2.01607 53.0091 1.27262 51.8673 0.7658 50.6107C0.258984 49.3541 -0.00124517 48.0073 4.47943e-06 46.6474V10.3526C-0.00124517 8.99269 0.258984 7.64591 0.7658 6.3893C1.27262 5.13269 2.01607 3.99092 2.95361 3.02934C3.89115 2.06776 5.00437 1.30525 6.22956 0.785436C7.45476 0.265625 8.76787 -0.0012771 10.0938 4.59429e-06Z" fill="#F0F0F0"/>
<path d="M49.069 26.5959L30.4028 7.93127C29.3288 6.85624 27.5854 6.85624 26.5101 7.93127L22.6343 11.8076L27.5506 16.7242C28.6936 16.3383 30.0036 16.597 30.9142 17.5079C31.8296 18.4244 32.0865 19.7456 31.6909 20.8925L36.4294 25.6311C37.5758 25.2361 38.8984 25.4913 39.8138 26.4084C41.0936 27.6878 41.0936 29.7611 39.8138 31.0409C38.5339 32.3211 36.4607 32.3211 35.18 31.0409C34.2177 30.0778 33.9797 28.6638 34.4671 27.4781L30.0479 23.0588L30.0476 34.6882C30.3596 34.8427 30.654 35.0489 30.914 35.3077C32.1934 36.587 32.1934 38.6599 30.914 39.9414C29.6342 41.2206 27.5602 41.2206 26.2817 39.9414C25.0021 38.66 25.0021 36.5872 26.2817 35.3077C26.598 34.9921 26.9639 34.7531 27.3543 34.593V22.8554C26.9637 22.696 26.5982 22.4588 26.2815 22.1406C25.3123 21.1721 25.0788 19.7495 25.5759 18.5592L20.7293 13.7117L7.93149 26.5097C6.85617 27.5855 6.85617 29.329 7.93149 30.404L26.5965 49.0687C27.6712 50.1438 29.4139 50.1438 30.49 49.0687L49.0688 30.4922C50.1437 29.4167 50.1437 27.6727 49.0688 26.5975" fill="#F05133"/>
</svg>
