<svg width="44" height="44" viewBox="0 0 44 44" fill="none" xmlns="http://www.w3.org/2000/svg">
<path d="M22 4.11896C17.6467 4.11914 13.4355 5.66833 10.1199 8.48934C6.80437 11.3104 4.60076 15.2191 3.90342 19.5162C3.20608 23.8133 4.06051 28.2183 6.31382 31.943C8.56714 35.6678 12.0723 38.4692 16.2021 39.846C17.1188 40.0065 17.4625 39.4565 17.4625 38.9752C17.4625 38.5398 17.4396 37.096 17.4396 35.5606C12.8333 36.4085 11.6417 34.4378 11.275 33.4065C10.8681 32.4035 10.2232 31.5147 9.39584 30.8169C8.75418 30.4731 7.83751 29.6252 9.37291 29.6023C9.95918 29.6659 10.5215 29.8699 11.0122 30.1971C11.5028 30.5242 11.9074 30.9647 12.1917 31.4814C12.4424 31.9319 12.7796 32.3284 13.1839 32.6483C13.5881 32.9683 14.0515 33.2053 14.5476 33.3458C15.0436 33.4863 15.5625 33.5275 16.0745 33.4672C16.5864 33.4068 17.0815 33.246 17.5312 32.9939C17.6106 32.0619 18.026 31.1905 18.7 30.5419C14.6208 30.0836 10.3583 28.5023 10.3583 21.4898C10.3326 19.6678 11.0049 17.9049 12.2375 16.5628C11.677 14.9792 11.7426 13.2413 12.4208 11.7044C12.4208 11.7044 13.9562 11.2232 17.4625 13.5836C20.4624 12.7585 23.6293 12.7585 26.6292 13.5836C30.1354 11.2003 31.6708 11.7044 31.6708 11.7044C32.3492 13.2413 32.4148 14.9792 31.8542 16.5628C33.0905 17.9026 33.7634 19.667 33.7333 21.4898C33.7333 28.5252 29.4479 30.0836 25.3688 30.5419C25.8063 30.9854 26.1433 31.5178 26.3568 32.103C26.5703 32.6882 26.6554 33.3126 26.6063 33.9336C26.6063 36.3857 26.5833 38.3565 26.5833 38.9753C26.5833 39.4565 26.9271 40.0294 27.8437 39.8461C31.9663 38.458 35.4614 35.65 37.7051 31.9234C39.9488 28.1967 40.7951 23.794 40.093 19.5011C39.3908 15.2081 37.1858 11.3045 33.8717 8.48689C30.5576 5.66932 26.35 4.12122 22 4.11896Z" fill="#61D5B9"/>
</svg>
