<svg width="50" height="50" viewBox="0 0 50 50" fill="none" xmlns="http://www.w3.org/2000/svg">
<g clip-path="url(#clip0_21_57)">
<path d="M8.85417 4.03008e-06H41.1458C42.3089 -0.00112026 43.4607 0.233004 44.5355 0.688979C45.6102 1.14495 46.5867 1.81383 47.4091 2.65732C48.2315 3.50081 48.8837 4.50236 49.3283 5.60465C49.7728 6.70694 50.0011 7.88832 50 9.0812V40.9188C50.0011 42.1117 49.7728 43.2931 49.3283 44.3954C48.8837 45.4976 48.2315 46.4992 47.4091 47.3427C46.5867 48.1862 45.6102 48.855 44.5355 49.311C43.4607 49.767 42.3089 50.0011 41.1458 50H8.85417C7.69112 50.0011 6.53926 49.767 5.46453 49.311C4.3898 48.855 3.41329 48.1862 2.59088 47.3427C1.76848 46.4992 1.11633 45.4976 0.671755 44.3954C0.227179 43.2931 -0.00109226 42.1117 3.92932e-06 40.9188V9.0812C-0.00109226 7.88832 0.227179 6.70694 0.671755 5.60465C1.11633 4.50236 1.76848 3.50081 2.59088 2.65732C3.41329 1.81383 4.3898 1.14495 5.46453 0.688979C6.53926 0.233004 7.69112 -0.00112026 8.85417 4.03008e-06Z" fill="#F7DF1E"/>
<path d="M33.6722 39.123C34.6794 40.7675 35.9897 41.9762 38.3071 41.9762C40.254 41.9762 41.4976 41.0032 41.4976 39.6587C41.4976 38.0476 40.2198 37.477 38.077 36.5397L36.9024 36.0357C33.5119 34.5913 31.2595 32.7817 31.2595 28.9563C31.2595 25.4325 33.9444 22.75 38.1405 22.75C41.1278 22.75 43.2754 23.7897 44.823 26.5119L41.1643 28.8611C40.3587 27.4167 39.4897 26.8476 38.1405 26.8476C36.7643 26.8476 35.8921 27.7206 35.8921 28.8611C35.8921 30.2706 36.7651 30.8413 38.781 31.7143L39.9556 32.2175C43.9476 33.9294 46.2016 35.6746 46.2016 39.5984C46.2016 43.8286 42.8786 46.146 38.4159 46.146C34.0524 46.146 31.2333 44.0667 29.854 41.3413L33.6722 39.123ZM17.0746 39.5302C17.8127 40.8397 18.4841 41.9468 20.0984 41.9468C21.6421 41.9468 22.6159 41.3429 22.6159 38.9944V23.0183H27.3143V39.0579C27.3143 43.923 24.4619 46.1373 20.2984 46.1373C16.5365 46.1373 14.3579 44.1905 13.25 41.8456L17.0746 39.5302Z" fill="black"/>
</g>
<defs>
<clipPath id="clip0_21_57">
<rect width="50" height="50" fill="white"/>
</clipPath>
</defs>
</svg>
