<svg width="45" height="44" viewBox="0 0 45 44" fill="none" xmlns="http://www.w3.org/2000/svg">
<path d="M32.8125 16.4982C31.1339 16.4975 29.4812 16.9034 28.0023 17.6798C27.8673 17.3322 27.6274 17.0331 27.3144 16.822C27.0014 16.6109 26.6302 16.498 26.25 16.4982H18.75C18.5037 16.498 18.2598 16.5454 18.0323 16.6374C17.8047 16.7295 17.598 16.8646 17.4238 17.0348C17.2497 17.2051 17.1116 17.4073 17.0174 17.6297C16.9232 17.8522 16.8748 18.0907 16.875 18.3315V40.3315C16.8748 40.5723 16.9232 40.8108 17.0174 41.0332C17.1116 41.2557 17.2497 41.4579 17.4238 41.6282C17.598 41.7984 17.8047 41.9335 18.0323 42.0256C18.2598 42.1176 18.5037 42.165 18.75 42.1648H26.25C26.4962 42.165 26.7401 42.1176 26.9677 42.0256C27.1952 41.9335 27.402 41.7984 27.5761 41.6282C27.7503 41.4579 27.8884 41.2557 27.9825 41.0332C28.0767 40.8108 28.1251 40.5723 28.125 40.3315V30.2482C28.125 29.7619 28.3225 29.2956 28.6742 28.9518C29.0258 28.608 29.5027 28.4148 30 28.4148C30.4973 28.4148 30.9742 28.608 31.3258 28.9518C31.6774 29.2956 31.875 29.7619 31.875 30.2482V40.3315C31.8748 40.5723 31.9232 40.8108 32.0174 41.0332C32.1116 41.2557 32.2497 41.4579 32.4238 41.6282C32.598 41.7984 32.8047 41.9335 33.0323 42.0256C33.2598 42.1176 33.5037 42.165 33.75 42.1648H41.25C41.4962 42.165 41.7401 42.1176 41.9677 42.0256C42.1952 41.9335 42.402 41.7984 42.5761 41.6282C42.7503 41.4579 42.8884 41.2557 42.9825 41.0332C43.0767 40.8108 43.1251 40.5723 43.125 40.3315V26.5815C43.1216 23.9083 42.034 21.3454 40.1008 19.4552C38.1675 17.5649 35.5465 16.5015 32.8125 16.4982ZM39.375 38.4982H35.625V30.2482C35.625 28.7895 35.0323 27.3905 33.9775 26.3591C32.9226 25.3276 31.4918 24.7482 30 24.7482C28.5081 24.7482 27.0774 25.3276 26.0225 26.3591C24.9676 27.3905 24.375 28.7895 24.375 30.2482V38.4982H20.625V20.1648H24.375V21.4539C24.3752 21.8338 24.496 22.2042 24.7208 22.514C24.9456 22.8239 25.2632 23.0578 25.6298 23.1836C25.9964 23.3094 26.3939 23.3207 26.7673 23.2162C27.1408 23.1116 27.4719 22.8962 27.7148 22.5997C28.5563 21.5548 29.7104 20.7929 31.0162 20.4203C32.3219 20.0478 33.7141 20.0833 34.9982 20.5218C36.2823 20.9603 37.3944 21.78 38.179 22.8663C38.9637 23.9527 39.3818 25.2515 39.375 26.5815V38.4982ZM13.125 16.4982H5.62498C5.37871 16.498 5.13483 16.5454 4.90728 16.6374C4.67973 16.7295 4.47298 16.8646 4.29884 17.0348C4.1247 17.2051 3.98659 17.4073 3.89242 17.6297C3.79824 17.8522 3.74984 18.0907 3.74998 18.3315V40.3315C3.74983 40.5723 3.79823 40.8108 3.89241 41.0332C3.98659 41.2557 4.12469 41.4579 4.29883 41.6282C4.47297 41.7984 4.67973 41.9335 4.90728 42.0256C5.13483 42.1176 5.37871 42.165 5.62498 42.1648H13.125C13.3712 42.165 13.6151 42.1176 13.8427 42.0256C14.0702 41.9335 14.277 41.7984 14.4511 41.6282C14.6253 41.4579 14.7634 41.2557 14.8575 41.0332C14.9517 40.8108 15.0001 40.5723 15 40.3315V18.3315C15.0001 18.0907 14.9517 17.8522 14.8575 17.6297C14.7634 17.4073 14.6253 17.2051 14.4511 17.0348C14.277 16.8646 14.0702 16.7295 13.8427 16.6374C13.6151 16.5454 13.3712 16.498 13.125 16.4982ZM11.25 38.4982H7.49998V20.1648H11.25V38.4982ZM9.40244 2.827C8.58187 2.77897 7.75988 2.89464 6.98646 3.16698C6.21304 3.43932 5.50436 3.86263 4.90351 4.41117C4.30266 4.95971 3.82219 5.62201 3.49134 6.35781C3.16048 7.09361 2.98614 7.88752 2.97893 8.69126C2.97172 9.49501 3.13178 10.2918 3.44938 11.0331C3.76699 11.7745 4.23549 12.445 4.82641 13.0037C5.41733 13.5625 6.1183 13.9979 6.88672 14.2835C7.65513 14.569 8.47492 14.6988 9.29623 14.6648H9.34933C10.1721 14.7126 10.9961 14.5959 11.7712 14.3217C12.5462 14.0476 13.256 13.6218 13.857 13.0704C14.4581 12.519 14.9378 11.8535 15.267 11.1147C15.5961 10.3759 15.7678 9.57921 15.7714 8.77334C15.775 7.96747 15.6105 7.16934 15.288 6.42772C14.9655 5.6861 14.4917 5.01657 13.8956 4.46003C13.2995 3.90349 12.5937 3.47164 11.8211 3.19086C11.0486 2.91008 10.2256 2.78627 9.40243 2.827H9.40244ZM9.34934 10.9982H9.29623C8.97198 11.0367 8.64306 11.0069 8.33152 10.9109C8.01999 10.815 7.73304 10.655 7.48993 10.4417C7.24682 10.2284 7.05316 9.96674 6.92194 9.67427C6.79072 9.3818 6.72497 9.06528 6.72911 8.74593C6.72911 7.37808 7.7783 6.49364 9.40244 6.49364C9.73 6.45095 10.0631 6.47738 10.3793 6.57117C10.6956 6.66495 10.9876 6.8239 11.2357 7.03732C11.4838 7.25075 11.6823 7.51367 11.8177 7.8084C11.9531 8.10314 12.0224 8.42282 12.0208 8.74593C12.0208 10.1138 10.9717 10.9982 9.34934 10.9982Z" fill="#61D5B9"/>
</svg>
