<svg width="24" height="23" viewBox="0 0 24 23" fill="none" xmlns="http://www.w3.org/2000/svg">
<path d="M12 1.91666C9.87827 1.91666 7.84344 2.7244 6.34315 4.16218C4.84285 5.59996 4 7.55 4 9.58333C4 14.7583 11.05 20.6042 11.35 20.8533C11.5311 21.0018 11.7616 21.0834 12 21.0834C12.2384 21.0834 12.4689 21.0018 12.65 20.8533C13 20.6042 20 14.7583 20 9.58333C20 7.55 19.1571 5.59996 17.6569 4.16218C16.1566 2.7244 14.1217 1.91666 12 1.91666ZM12 18.8312C9.87 16.9146 6 12.7842 6 9.58333C6 8.05834 6.63214 6.5958 7.75736 5.51747C8.88258 4.43913 10.4087 3.83333 12 3.83333C13.5913 3.83333 15.1174 4.43913 16.2426 5.51747C17.3679 6.5958 18 8.05834 18 9.58333C18 12.7842 14.13 16.9242 12 18.8312ZM12 5.75C11.2089 5.75 10.4355 5.97482 9.77772 6.39603C9.11992 6.81724 8.60723 7.41593 8.30448 8.11638C8.00173 8.81683 7.92252 9.58758 8.07686 10.3312C8.2312 11.0748 8.61216 11.7578 9.17157 12.2939C9.73098 12.83 10.4437 13.1951 11.2196 13.343C11.9956 13.4909 12.7998 13.415 13.5307 13.1249C14.2616 12.8347 14.8864 12.3434 15.3259 11.713C15.7654 11.0826 16 10.3415 16 9.58333C16 8.56667 15.5786 7.59164 14.8284 6.87275C14.0783 6.15386 13.0609 5.75 12 5.75ZM12 11.5C11.6044 11.5 11.2178 11.3876 10.8889 11.177C10.56 10.9664 10.3036 10.667 10.1522 10.3168C10.0009 9.96658 9.96126 9.5812 10.0384 9.20941C10.1156 8.83761 10.3061 8.49609 10.5858 8.22804C10.8655 7.95999 11.2219 7.77745 11.6098 7.70349C11.9978 7.62954 12.3999 7.66749 12.7654 7.81256C13.1308 7.95763 13.4432 8.20329 13.6629 8.51849C13.8827 8.83368 14 9.20425 14 9.58333C14 10.0917 13.7893 10.5792 13.4142 10.9386C13.0391 11.2981 12.5304 11.5 12 11.5Z" fill="white"/>
</svg>
