<svg width="26" height="28" viewBox="0 0 26 28" fill="none" xmlns="http://www.w3.org/2000/svg">
<path d="M20.5834 4.66667H5.41669C4.55473 4.66667 3.72808 5.03542 3.11859 5.6918C2.5091 6.34818 2.16669 7.23841 2.16669 8.16667V19.8333C2.16669 20.7616 2.5091 21.6518 3.11859 22.3082C3.72808 22.9646 4.55473 23.3333 5.41669 23.3333H20.5834C21.4453 23.3333 22.272 22.9646 22.8815 22.3082C23.4909 21.6518 23.8334 20.7616 23.8334 19.8333V8.16667C23.8334 7.23841 23.4909 6.34818 22.8815 5.6918C22.272 5.03542 21.4453 4.66667 20.5834 4.66667ZM5.41669 7.00001H20.5834C20.8707 7.00001 21.1462 7.12292 21.3494 7.34171C21.5526 7.56051 21.6667 7.85725 21.6667 8.16667L13 13.86L4.33335 8.16667C4.33335 7.85725 4.44749 7.56051 4.65066 7.34171C4.85382 7.12292 5.12937 7.00001 5.41669 7.00001ZM21.6667 19.8333C21.6667 20.1428 21.5526 20.4395 21.3494 20.6583C21.1462 20.8771 20.8707 21 20.5834 21H5.41669C5.12937 21 4.85382 20.8771 4.65066 20.6583C4.44749 20.4395 4.33335 20.1428 4.33335 19.8333V10.8267L12.4367 16.1583C12.6014 16.2607 12.7882 16.3146 12.9784 16.3146C13.1685 16.3146 13.3553 16.2607 13.52 16.1583L21.6667 10.8267V19.8333Z" fill="white"/>
</svg>
