<svg width="25" height="28" viewBox="0 0 25 28" fill="none" xmlns="http://www.w3.org/2000/svg">
<path d="M20.25 15.1667C20.0208 15.1667 19.7812 15.085 19.5521 15.0267C19.088 14.9121 18.6319 14.7601 18.1875 14.5717C17.7042 14.3748 17.1731 14.385 16.6961 14.6004C16.2192 14.8157 15.8303 15.2211 15.6041 15.7383L15.375 16.2633C14.3604 15.6312 13.4281 14.8461 12.6041 13.93C11.7862 13.0072 11.0852 11.963 10.5208 10.8267L10.9583 10.5C11.4202 10.2467 11.782 9.81111 11.9744 9.27697C12.1667 8.74282 12.1758 8.14789 12 7.60666C11.8346 7.10782 11.6989 6.59726 11.5937 6.07833C11.5416 5.82166 11.5 5.55333 11.4687 5.28499C11.3422 4.46322 10.9579 3.71903 10.385 3.18644C9.81209 2.65385 9.08821 2.36787 8.34373 2.37999H5.21873C4.76981 2.37527 4.32524 2.47894 3.91531 2.68395C3.50537 2.88895 3.13968 3.19047 2.84314 3.56799C2.5466 3.94551 2.32616 4.39015 2.19685 4.87166C2.06753 5.35317 2.03236 5.86023 2.09373 6.35833C2.64867 11.2459 4.64168 15.7872 7.75795 19.2647C10.8742 22.7423 14.9361 24.9579 19.3021 25.5617H19.6979C20.466 25.5629 21.2077 25.2473 21.7812 24.675C22.1108 24.3449 22.374 23.9402 22.5536 23.4877C22.7332 23.0352 22.8249 22.5452 22.8229 22.05V18.55C22.8101 17.7396 22.5467 16.9593 22.0774 16.3423C21.6082 15.7252 20.9623 15.3097 20.25 15.1667ZM20.7708 22.1667C20.7706 22.3323 20.7389 22.496 20.6779 22.6469C20.6168 22.7978 20.5278 22.9323 20.4166 23.0417C20.3003 23.1542 20.1642 23.2383 20.0171 23.2885C19.87 23.3387 19.7151 23.354 19.5625 23.3333C15.6613 22.7731 12.0377 20.7742 9.26323 17.652C6.48873 14.5298 4.72124 10.4619 4.23957 6.08999C4.22299 5.9191 4.23752 5.74621 4.28228 5.58178C4.32704 5.41735 4.4011 5.2648 4.49998 5.13333C4.5976 5.00888 4.71775 4.90914 4.85246 4.84075C4.98717 4.77235 5.13333 4.73687 5.28123 4.73666H8.40623C8.64847 4.73062 8.88501 4.81935 9.07513 4.98758C9.26526 5.1558 9.39708 5.39299 9.4479 5.65833C9.48957 5.97722 9.54165 6.29222 9.60415 6.60333C9.72448 7.21833 9.88463 7.8227 10.0833 8.41166L8.62498 9.16999C8.50029 9.23407 8.38813 9.3251 8.29494 9.43785C8.20175 9.55061 8.12936 9.68288 8.08193 9.82705C8.0345 9.97123 8.01297 10.1245 8.01857 10.278C8.02417 10.4315 8.0568 10.5823 8.11457 10.7217C9.61373 14.3182 12.195 17.2093 15.4062 18.8883C15.6598 19.005 15.9443 19.005 16.1979 18.8883C16.3278 18.8363 16.4472 18.7559 16.5491 18.6517C16.651 18.5476 16.7335 18.4218 16.7916 18.2817L17.4375 16.6483C17.976 16.864 18.5256 17.0432 19.0833 17.185C19.3611 17.255 19.6423 17.3133 19.9271 17.36C20.164 17.4169 20.3758 17.5646 20.526 17.7775C20.6761 17.9904 20.7554 18.2554 20.75 18.5267L20.7708 22.1667Z" fill="white"/>
</svg>
