<svg width="31" height="31" viewBox="0 0 31 31" fill="none" xmlns="http://www.w3.org/2000/svg">
<path d="M12.9605 5.96052C12.6873 5.96052 12.4202 6.04155 12.193 6.19336C11.9658 6.34517 11.7887 6.56094 11.6841 6.81339C11.5796 7.06584 11.5522 7.34363 11.6055 7.61163C11.6588 7.87963 11.7904 8.1258 11.9836 8.31902C12.1768 8.51224 12.423 8.64382 12.691 8.69713C12.959 8.75044 13.2368 8.72308 13.4893 8.61851C13.7417 8.51394 13.9575 8.33686 14.1093 8.10966C14.2611 7.88246 14.3421 7.61535 14.3421 7.3421C14.3421 6.97568 14.1966 6.62427 13.9375 6.36518C13.6784 6.10608 13.327 5.96052 12.9605 5.96052ZM7.43423 5.96052C7.16098 5.96052 6.89387 6.04155 6.66667 6.19336C6.43947 6.34517 6.26239 6.56094 6.15782 6.81339C6.05325 7.06584 6.02589 7.34363 6.0792 7.61163C6.13251 7.87963 6.26409 8.1258 6.45731 8.31902C6.65053 8.51224 6.8967 8.64382 7.1647 8.69713C7.4327 8.75044 7.71049 8.72308 7.96294 8.61851C8.21539 8.51394 8.43116 8.33686 8.58297 8.10966C8.73478 7.88246 8.81581 7.61535 8.81581 7.3421C8.81581 6.97568 8.67025 6.62427 8.41115 6.36518C8.15206 6.10608 7.80065 5.96052 7.43423 5.96052ZM18.4869 5.96052C18.2136 5.96052 17.9465 6.04155 17.7193 6.19336C17.4921 6.34517 17.315 6.56094 17.2104 6.81339C17.1059 7.06584 17.0785 7.34363 17.1318 7.61163C17.1851 7.87963 17.3167 8.1258 17.5099 8.31902C17.7032 8.51224 17.9493 8.64382 18.2173 8.69713C18.4853 8.75044 18.7631 8.72308 19.0156 8.61851C19.268 8.51394 19.4838 8.33686 19.6356 8.10966C19.7874 7.88246 19.8684 7.61535 19.8684 7.3421C19.8684 6.97568 19.7229 6.62427 19.4638 6.36518C19.2047 6.10608 18.8533 5.96052 18.4869 5.96052ZM26.7763 0.434204H4.67107C3.57182 0.434204 2.51759 0.87088 1.7403 1.64817C0.963013 2.42546 0.526337 3.47969 0.526337 4.57894V26.6842C0.526337 27.7835 0.963013 28.8377 1.7403 29.615C2.51759 30.3923 3.57182 30.8289 4.67107 30.8289H26.7763C27.8756 30.8289 28.9298 30.3923 29.7071 29.615C30.4844 28.8377 30.9211 27.7835 30.9211 26.6842V4.57894C30.9211 3.47969 30.4844 2.42546 29.7071 1.64817C28.9298 0.87088 27.8756 0.434204 26.7763 0.434204ZM28.1579 26.6842C28.1579 27.0506 28.0124 27.402 27.7533 27.6611C27.4942 27.9202 27.1428 28.0658 26.7763 28.0658H4.67107C4.30466 28.0658 3.95325 27.9202 3.69415 27.6611C3.43505 27.402 3.28949 27.0506 3.28949 26.6842V14.25H28.1579V26.6842ZM28.1579 11.4868H3.28949V4.57894C3.28949 4.21252 3.43505 3.86111 3.69415 3.60202C3.95325 3.34292 4.30466 3.19736 4.67107 3.19736H26.7763C27.1428 3.19736 27.4942 3.34292 27.7533 3.60202C28.0124 3.86111 28.1579 4.21252 28.1579 4.57894V11.4868Z" fill="#E9E9E9"/>
</svg>
